HIERARCHY
ROOT Hips
{
	OFFSET 0.00000 0.00000 0.00000
	CHANNELS 6 Xposition Yposition Zposition Yrotation Zrotation Xrotation 
	JOINT Lumbar
	{
		OFFSET 0 0 0
		CHANNELS 3 Zrotation Xrotation Yrotation
		JOINT Neck
		{
			OFFSET 0.00 0.2701 0.00
			CHANNELS 3 Zrotation Xrotation Yrotation
			End Site
			{
				OFFSET 0.00 0.1379 0.00
			}
		}
		JOINT RightShoulder
		{
			OFFSET 0.0119 0.2289 0.1181
			CHANNELS 3 Zrotation Xrotation Yrotation
			JOINT RightElbow
			{
				OFFSET 0.00 -0.1475 0.00
				CHANNELS 2 Zrotation Yrotation
				JOINT RightWrist
				{
					OFFSET 0.00 -0.1605 0.00
					CHANNELS 2 Zrotation Xrotation
					End Site
					{
						OFFSET 0.0040 -0.1068 0.0006
					}
				}
			}
		}
		JOINT LeftShoulder
		{
			OFFSET 0.0119 0.2289 -0.1181
			CHANNELS 3 Zrotation Xrotation Yrotation
			JOINT LeftElbow
			{
				OFFSET 0.00 -0.1475 0.00
				CHANNELS 2 Zrotation Yrotation
				JOINT LeftWrist
				{
					OFFSET 0.00 -0.1605 0.00
					CHANNELS 2 Zrotation Xrotation
					End Site
					{
						OFFSET 0.0040 -0.1068 -0.0006
					}
				}
			}
		}
	}
	JOINT RightHip
	{
		OFFSET 0.0316 -0.0424 0.0458
		CHANNELS 3 Zrotation Xrotation Yrotation
		JOINT RightKnee
		{
			OFFSET 0.00 -0.2438 0.00
			CHANNELS 1 Zrotation
			JOINT RightAnkle
			{
				OFFSET 0.00 -0.2449 0.00
				CHANNELS 3 Zrotation Xrotation Yrotation
				End Site
				{
					OFFSET 0.1237 -0.0542 0.0051
				}
			}
		}
	}
	JOINT LeftHip
	{
		OFFSET 0.0316 -0.0424 -0.0458
		CHANNELS 3 Zrotation Xrotation Yrotation
		JOINT LeftKnee
		{
			OFFSET 0.00 -0.2438 0.00
			CHANNELS 1 Zrotation
			JOINT LeftAnkle
			{
				OFFSET 0.00 -0.2449 0.00
				CHANNELS 3 Zrotation Xrotation Yrotation
				End Site
				{
					OFFSET 0.1237 -0.0542 -0.0051
				}
			}
		}
	}
}
MOTION
Frames: 25
Frame Time: 0.02
0.55899 0.109 -0.32348 66.19447 -19.10454 -12.68212 32.00673 1.27483 -7.90153 -9.05542 8.19453 -0.83079 8.68308 -21.04049 -25.54881 133.38751 66.27681 -18.24863 -0.3456 1.04153 18.31211 30.56826 127.93839 -58.74356 -11.57322 -4.02218 16.78349 8.12285 -8.98513 -6.32244 4.57197 -11.40041 -5.79686 37.41602 15.36572 -5.46185 -36.54021 -8.96453 3.36784 2.49135
0.55744 0.1087 -0.31941 66.30124 -19.70103 -12.71553 31.35597 1.45877 -8.00933 -9.27531 8.39125 -0.83079 8.05846 -20.55328 -27.49149 135.00332 69.80619 -19.11539 -1.12548 0.39798 17.53058 32.27681 130.33239 -58.22281 -12.05611 -3.66955 18.46537 7.95801 -9.26263 -7.56756 2.88839 -10.34695 -5.36668 38.61811 15.48653 -5.11247 -36.82356 -8.90715 3.32055 2.46274
0.55545 0.10837 -0.31536 66.31625 -20.66391 -12.7059 31.10359 1.54516 -8.17693 -9.46456 8.60777 -0.83079 8.05885 -20.39019 -29.3561 135.244 75.0694 -19.29234 -2.2241 0.23557 17.25524 33.88874 131.91269 -59.04689 -11.86285 -2.93891 20.76983 7.63902 -9.52118 -9.22225 0.0938 -8.69924 -4.7124 40.04867 15.54681 -4.53668 -36.87062 -8.78148 3.29356 2.44154
0.55364 0.10805 -0.31135 66.36836 -21.45233 -12.71692 30.67396 1.67777 -8.31024 -9.65305 8.81115 -0.83079 7.80028 -20.11433 -31.22987 136.11339 79.23035 -19.7857 -3.11639 -0.11537 16.79178 35.50501 133.82165 -59.20702 -11.99669 -2.4351 22.76256 7.3867 -9.8012 -10.65708 -2.09472 -7.3869 -4.18733 41.34843 15.64349 -4.04555 -37.02222 -8.68971 3.25159 2.41407
0.55191 0.10773 -0.30713 66.44093 -22.27155 -12.72496 30.21523 1.80698 -8.47188 -9.89724 9.03398 -0.83079 7.45466 -19.69111 -33.21475 136.96549 84.66353 -20.28631 -4.2663 -0.56863 16.15346 37.27905 135.89635 -59.53182 -12.06579 -1.71102 24.86937 7.14856 -10.01692 -12.22107 -4.67127 -5.85683 -3.57714 42.76057 15.70458 -3.62807 -37.18327 -8.58736 3.23257 2.39827
0.54991 0.10742 -0.30336 66.4485 -23.11259 -12.72826 29.91755 1.91801 -8.58958 -10.02083 9.21982 -0.83079 7.42972 -19.64628 -34.94599 137.52096 87.90535 -20.59728 -4.96078 -0.70633 15.99388 38.70338 137.42785 -59.86531 -12.09609 -1.34492 26.886 6.84454 -10.36172 -13.61751 -6.72049 -4.61694 -3.0796 43.98802 15.82234 -3.01087 -37.2666 -8.49032 3.17215 2.36072
0.54729 0.10713 -0.3007 66.30156 -23.94936 -12.73023 29.95792 2.00672 -8.56936 -9.81593 9.30363 -0.83079 8.16125 -20.6432 -36.04029 137.66877 84.35307 -20.59044 -4.26114 -0.0608 17.09339 39.20588 137.74822 -59.77147 -12.25524 -2.13861 28.5407 6.39322 -11.11982 -14.46185 -7.0166 -4.32294 -2.94475 44.71437 16.14002 -1.82233 -37.22639 -8.42377 2.97942 2.25414
0.54441 0.10685 -0.2985 66.09194 -24.79085 -12.72845 30.15044 2.07899 -8.50383 -9.49244 9.34821 -0.83079 9.18759 -21.99678 -36.87374 137.54899 78.59904 -20.40606 -3.10256 0.87787 18.64639 39.35726 137.53185 -59.66936 -12.38332 -3.29008 30.07646 5.88134 -12.00106 -15.12347 -6.75351 -4.33341 -2.92723 45.23452 16.51137 -0.45499 -37.10916 -8.36487 2.74688 2.12677
0.54163 0.10658 -0.29616 65.909 -25.61529 -12.72737 30.28056 2.15574 -8.46005 -9.22567 9.40754 -0.83079 10.06024 -23.13825 -37.79895 137.5087 74.06527 -20.27802 -2.19204 1.65865 19.95222 39.65818 137.50963 -59.65802 -12.47816 -4.22558 31.64361 5.39935 -12.79348 -15.86369 -6.76829 -4.19668 -2.85369 45.80954 16.83978 0.78278 -37.00826 -8.30283 2.54103 2.01352
0.53888 0.10629 -0.2935 65.72978 -26.51803 -12.72913 30.39429 2.24246 -8.41183 -8.94456 9.48141 -0.83079 11.03616 -24.50184 -38.83701 137.61375 68.66283 -20.23434 -1.12613 2.55723 21.44887 39.99928 137.68452 -59.3258 -12.75136 -5.3739 33.33177 4.90252 -13.72276 -16.6366 -6.72135 -4.07741 -2.78423 46.56228 17.2453 2.23588 -36.98438 -8.23702 2.29918 1.8806
0.53602 0.10602 -0.29164 65.53002 -27.25067 -12.72455 30.57516 2.30492 -8.36334 -8.66714 9.51438 -0.83079 11.86139 -25.48359 -39.57589 137.35084 64.52604 -19.97502 -0.27053 3.27816 22.64947 40.17281 137.31241 -59.64212 -12.65219 -6.16809 34.72682 4.42357 -14.39769 -17.29284 -6.65532 -4.0018 -2.73699 46.8855 17.50257 3.27557 -36.77667 -8.18174 2.12308 1.78388
0.53292 0.10584 -0.29179 65.28195 -27.53924 -12.70421 30.88539 2.31188 -8.30781 -8.41653 9.45264 -0.83079 12.17466 -25.32272 -39.58017 136.31089 64.40078 -19.22456 -0.10697 3.39756 22.91856 39.98415 135.73527 -61.74812 -11.55509 -5.90539 35.37938 4.01488 -14.3294 -17.6698 -6.67379 -3.97143 -2.72195 46.13638 17.34755 3.17075 -36.15249 -8.15407 2.13362 1.78985
0.5297 0.10568 -0.29275 65.01748 -27.64937 -12.67762 31.25928 2.29399 -8.25654 -8.17673 9.3494 -0.83079 12.32887 -24.76589 -39.28762 134.88404 65.62007 -18.25611 -0.1688 3.33436 22.8734 39.63588 133.59945 -64.49856 -10.08424 -5.27493 35.7309 3.62585 -14.00218 -17.93431 -6.68687 -3.97761 -2.72645 44.94974 17.03988 2.63796 -35.33427 -8.13696 2.21217 1.83324
0.52653 0.1055 -0.29341 64.76504 -27.82212 -12.65364 31.61464 2.28323 -8.2144 -7.93965 9.25937 -0.83079 12.56628 -24.38679 -39.11319 133.52798 66.23035 -17.3499 -0.12726 3.37618 22.96989 39.35269 131.60735 -66.95255 -8.77196 -4.80826 36.19241 3.2247 -13.80176 -18.24908 -6.69658 -3.9702 -2.72324 43.92005 16.7957 2.26935 -34.55796 -8.11514 2.26287 1.86122
0.5234 0.10535 -0.29379 64.48954 -28.07431 -12.63069 31.93245 2.28985 -8.12393 -7.66408 9.19176 -0.83079 12.76199 -24.02134 -39.00037 132.60671 66.75888 -16.58909 -0.07653 3.32956 23.08203 39.0922 130.05442 -69.43243 -7.5025 -4.36508 36.76352 2.83503 -13.57056 -18.55998 -6.71175 -3.95962 -2.71867 43.0578 16.57815 2.02268 -33.97173 -8.0933 2.30043 1.88235
0.52015 0.10514 -0.29493 64.26086 -28.11726 -12.60388 32.34053 2.25403 -8.1358 -7.47545 9.06821 -0.83079 13.0108 -23.53924 -38.69223 130.68965 67.80226 -15.48043 -0.10109 3.42736 23.08776 38.74667 127.4696 -71.99853 -6.05974 -3.78462 37.03617 2.4266 -13.33599 -18.85623 -6.7218 -3.96126 -2.72053 41.74849 16.26824 1.43361 -32.94758 -8.07374 2.38062 1.92615
0.51666 0.10479 -0.29795 64.14938 -27.63735 -12.57077 32.98929 2.11255 -8.42804 -7.50189 8.80005 -0.83079 13.37295 -22.73886 -37.91709 126.14742 69.97153 -13.42994 -0.31032 3.9011 22.81431 38.24536 122.11187 -74.75362 -4.19627 -2.88287 36.56144 1.96452 -13.19435 -19.1268 -6.71658 -3.97984 -2.73096 39.29062 15.73977 -0.13287 -30.74048 -8.05935 2.57408 2.02986
0.51303 0.10438 -0.30169 64.08836 -26.95163 -12.53358 33.72409 1.92865 -8.82298 -7.6199 8.47763 -0.83079 13.80454 -21.84978 -36.95652 120.61986 72.61495 -11.04536 -0.58498 4.53648 22.45322 37.65846 115.75559 -77.55303 -2.17855 -1.85988 35.79845 1.48236 -13.05175 -19.3907 -6.70939 -4.00923 -2.74729 36.4057 15.12349 -2.00581 -28.10688 -8.04648 2.80608 2.154
0.50941 0.104 -0.3051 64.01582 -26.35174 -12.49636 34.41472 1.76023 -9.17264 -7.71168 8.17997 -0.83079 14.25198 -21.06117 -36.08301 115.51577 75.03339 -8.83612 -0.80964 5.14196 22.17158 37.08611 109.89031 -80.26062 -0.25282 -0.91177 35.16369 1.00816 -12.88169 -19.6657 -6.7076 -4.03762 -2.76341 33.72762 14.54772 -3.64819 -25.67889 -8.03209 3.01255 2.26459
0.50603 0.10362 -0.30856 63.89678 -25.77501 -12.46657 35.13108 1.6055 -9.51897 -7.7402 7.87889 -0.83079 14.4998 -20.00714 -35.18921 110.46975 77.54691 -6.51572 -1.12285 5.56177 21.71481 36.61008 103.82091 -83.29264 1.78144 0.13239 34.5228 0.54073 -12.81474 -19.89875 -6.68689 -4.05188 -2.77042 30.96875 13.96416 -5.68571 -23.18143 -8.02205 3.25496 2.39439
0.50212 0.10321 -0.31205 63.88391 -25.10744 -12.4208 35.8109 1.41437 -9.89351 -7.92037 7.57448 -0.83079 15.17453 -19.48729 -34.29502 105.11266 79.94589 -4.35563 -1.27002 6.40353 21.60251 35.91608 97.981 -85.65193 3.6176 1.00062 33.83928 0.05267 -12.54331 -20.22389 -6.70449 -4.09646 -2.79681 28.29692 13.37786 -6.97379 -20.74608 -8.00257 3.43109 2.48867
0.49682 0.10281 -0.3156 64.17657 -24.20704 -12.32905 36.38912 1.11728 -10.34722 -8.5105 7.25854 -0.83079 17.07705 -20.48926 -33.46961 98.80485 82.01252 -2.67639 -0.89189 8.42135 22.49606 34.63461 92.72596 -86.13134 4.89929 1.35101 33.0344 -0.47304 -11.64496 -20.76758 -6.83572 -4.23175 -2.88128 25.85234 12.80785 -6.05988 -18.4526 -7.96195 3.41179 2.47863
0.49098 0.10237 -0.31912 64.56967 -23.22995 -12.22211 36.92292 0.78824 -10.82084 -9.2464 6.94435 -0.83079 19.39651 -22.0292 -32.64797 92.28038 83.92352 -1.17932 -0.35208 10.85142 23.73604 33.13872 87.79066 -85.9311 5.96865 1.51866 32.21372 -1.02059 -10.55231 -21.41373 -7.00426 -4.3953 -2.98388 23.53683 12.23911 -4.38928 -16.2647 -7.91082 3.32462 2.43214
0.48534 0.1019 -0.32254 64.9009 -22.30915 -12.12381 37.46408 0.48417 -11.26799 -9.90801 6.63971 -0.83079 21.48104 -23.30834 -31.80908 86.07759 85.83213 0.37152 0.08057 13.05837 24.79536 31.74624 82.90825 -86.04624 7.1136 1.76988 31.44821 -1.56896 -9.59282 -22.03559 -7.15098 -4.5392 -3.07401 21.23837 11.66812 -3.10133 -14.1143 -7.86087 3.27024 2.403
0.47986 0.10164 -0.32646 65.30302 -21.28765 -12.0173 38.0647 0.13394 -11.7922 -10.61132 6.28912 -0.83079 23.75468 -24.65286 -31.02585 78.90495 88.06183 2.05686 0.65005 15.41481 25.94366 30.3258 77.16734 -86.13585 8.35283 2.02388 30.46256 -2.07681 -8.44996 -22.55503 -7.31819 -4.71171 -3.18189 18.5947 11.09821 -1.66271 -11.57827 -7.82579 3.20932 2.37143
